<svg width="314" height="72" viewBox="0 0 314 72" fill="none" xmlns="http://www.w3.org/2000/svg">
<g filter="url(#filter0_d_708_3896)">
<path d="M13 32C13 15.4315 26.4315 2 43 2C59.5685 2 73 15.4315 73 32C73 48.5685 59.5685 62 43 62C26.4315 62 13 48.5685 13 32Z" fill="#7C62FF"/>
<path d="M43 3.5C58.7401 3.5 71.5 16.2599 71.5 32C71.5 47.7401 58.7401 60.5 43 60.5C27.2599 60.5 14.5 47.7401 14.5 32C14.5 16.2599 27.2599 3.5 43 3.5Z" stroke="white" stroke-width="3"/>
</g>
<path fill-rule="evenodd" clip-rule="evenodd" d="M39.5062 20.3722C38.8568 19.9114 38.0742 19.5265 37.2741 19.2741C36.9149 19.1608 36.4202 19.0472 36.1746 19.0215C35.7571 18.9779 35.7198 18.9877 35.5977 19.1741C35.0467 20.0151 34.7884 21.8338 35.0469 23.0535L35.1573 23.5743L34.8087 24.1031C33.2326 26.4944 33.0401 29.5446 34.3 32.1668C34.8 33.2072 35.3928 33.9456 36.2371 34.5795C37.3058 35.3818 38.3493 35.8336 39.8581 36.1473L40.5321 36.2873L40.8802 35.9457C41.0716 35.7579 41.2115 35.5875 41.1912 35.5671C41.1708 35.5467 40.8304 35.4485 40.4348 35.3486C38.8351 34.9451 37.6633 34.3555 37.0466 33.6439C36.0066 32.4439 35.6365 30.3622 36.2356 29.0819C36.5194 28.4755 36.9135 28.0212 37.3621 27.7836L37.6939 27.6078C37.6939 27.6078 38.6787 26.9013 39.9968 26.3861C41.2835 25.8832 42.8879 25.5713 44.2039 25.5697C45.3615 25.5684 47.0468 25.9121 48.461 26.3861C49.5808 26.7614 50.7096 27.5864 50.7096 27.5864L51.0047 27.7704C51.5105 28.0856 51.9399 28.5598 52.1679 29.0545C52.3551 29.4608 52.3909 29.649 52.4134 30.3465C52.4443 31.3029 52.3131 31.9783 51.9469 32.7489C51.6276 33.4205 50.7885 34.2633 50.1184 34.5854L49.6367 34.817L49.6325 35.3418C49.6298 35.6682 49.66 35.8666 49.7122 35.8666C49.8994 35.8666 50.8736 35.4283 51.4942 35.0649C52.3966 34.5365 53.4233 33.496 53.9253 32.6012C54.6465 31.3159 54.9584 29.9095 54.8907 28.2473C54.8229 26.5774 54.477 25.436 53.6621 24.1919L53.272 23.5963L53.355 23.1475C53.5636 22.0188 53.3966 20.4146 52.9658 19.4096C52.7914 19.0028 52.6171 18.9462 51.9149 19.0685C51.007 19.2266 49.4867 19.9072 48.7653 20.4785L48.461 20.7196L47.4702 20.4814C45.2398 19.9452 42.7796 19.9693 40.6334 20.5484L39.9968 20.7202L39.5062 20.3722Z" fill="#F5F8FF"/>
<path fill-rule="evenodd" clip-rule="evenodd" d="M47.8187 37.2576C48.4708 37.8982 48.811 38.557 49.1047 39.7474C49.34 40.7012 49.4922 41.0205 49.8931 41.4011C50.3872 41.87 50.6512 41.9702 51.3964 41.9718C52.2053 41.9736 52.4986 41.8482 53.1139 41.2371C53.5603 40.7939 53.7429 40.4139 53.8532 39.6992L53.9042 39.3687H53.5077H53.1112L53.7505 38.3587C54.102 37.8032 54.4072 37.3488 54.4286 37.3489C54.45 37.3491 54.7541 37.7948 55.1045 38.3395L55.7416 39.3299L55.4049 39.3532L55.0681 39.3765L55.0148 39.9752C54.8854 41.4269 54.5296 42.2963 53.7326 43.1076C53.339 43.5083 53.0556 43.7138 52.5949 43.9326C52.0462 44.1932 51.9032 44.2271 51.2418 44.2532C49.1205 44.3368 47.5181 43.1322 46.9262 41.0088C46.6162 39.8969 46.2971 39.3946 45.7065 39.0892C45.5028 38.9839 45.4876 38.9534 45.5786 38.8321C46.8596 37.1247 47.1688 36.7277 47.218 36.7266C47.2503 36.7259 47.5206 36.9648 47.8187 37.2576Z" fill="#F5F8FF"/>
<path fill-rule="evenodd" clip-rule="evenodd" d="M58.0996 32.3761C58.1827 30.8543 57.5277 29.4507 56.3783 28.6878C56.146 28.5336 55.9357 28.4075 55.9109 28.4075C55.886 28.4075 55.8656 28.5736 55.8655 28.7768C55.8639 31.4128 54.4858 34.1131 52.4642 35.4416C52.2825 35.561 52.1338 35.6654 52.1338 35.6735C52.1338 35.6816 52.3752 35.627 52.6703 35.552C53.9135 35.2364 54.782 35.2878 55.6583 35.7294C56.5322 36.1696 57.0933 36.9348 57.3123 37.985C57.601 39.3699 56.9235 40.8227 55.6461 41.5579C55.4261 41.6846 55.3117 41.8163 55.2527 42.011C55.116 42.4618 54.5719 43.2171 54.0076 43.7391L53.478 44.2293L54.9634 44.1823C56.5764 44.1313 56.8845 44.0697 57.819 43.6118C58.7904 43.1357 59.6905 42.315 60.2589 41.3873C60.4043 41.1497 60.6387 40.6249 60.7796 40.221C61.0276 39.5105 61.0359 39.4474 61.0335 38.2815C61.0311 37.1689 61.0143 37.0287 60.8152 36.4544C60.3934 35.2387 59.4899 34.0445 58.5139 33.4125L58.0591 33.118L58.0996 32.3761Z" fill="#F5F8FF"/>
<path fill-rule="evenodd" clip-rule="evenodd" d="M32.9768 25.6839C32.708 25.6909 31.7445 26.3213 31.2586 26.808C30.6309 27.4369 30.2648 28.1115 30.0739 28.991L29.951 29.5572L29.4775 29.7284C27.9846 30.2682 26.581 31.5365 25.8248 33.0288C23.9106 36.8061 25.4372 41.3603 29.276 43.3249C30.7625 44.0856 31.8294 44.3036 33.7621 44.2416C35.1893 44.1957 36.0736 44.0323 37.4542 43.5592C38.2511 43.2862 39.5956 42.6363 40.3888 42.1407C42.5303 40.8028 44.9704 38.347 46.681 35.8083C46.8611 35.5411 47.0385 35.3224 47.0752 35.3224C47.112 35.3224 47.4781 35.5518 47.8887 35.8322L48.6353 36.342V32.9166C48.6353 31.0327 48.6173 29.4913 48.5953 29.4913C48.5733 29.4913 47.167 30.1752 45.4702 31.011L42.3852 32.5308L43.2614 32.9533L44.1376 33.3759L43.8791 33.7366C42.6275 35.4824 41.2427 36.9501 39.8887 37.966C38.5343 38.9821 37.8968 39.3844 36.8601 39.8771C35.3713 40.5849 34.186 40.8508 33.0584 40.73L32.5415 40.6747L32.075 40.5704L31.6862 40.386L31.3636 40.2061C31.1862 40.1071 30.7888 39.7911 30.4805 39.5039C29.8609 38.9267 29.4426 38.2365 29.2393 37.4564C29.0869 36.8713 29.087 35.7946 29.2396 35.209C29.678 33.526 31.1945 32.2902 32.8217 32.2902C33.0952 32.2902 33.3189 32.274 33.3189 32.2542C33.3189 32.2344 33.2494 32.0418 33.1644 31.8261C32.5053 30.1539 32.3951 27.9856 32.8834 26.2996C32.9966 25.9088 33.031 25.6825 32.9768 25.6839Z" fill="#F5F8FF"/>
<path d="M84 20.3267H88.8051V38.5476H84V20.3267Z" fill="#494A64"/>
<path d="M93 20.377H99.9441L108.345 34.6772V20.377H112.809V38.5476H106.206L97.5261 23.4683V38.5476H93V20.377Z" fill="#494A64"/>
<path d="M115.33 20.377H133.496V23.3929H126.831V38.5476H121.995V23.3929H115.33V20.377Z" fill="#494A64"/>
<path d="M136.142 20.377H151.146V23.3426H140.947V27.6653H150.495V30.631H140.947V35.5317H151.487V38.5476H136.142V20.377Z" fill="#494A64"/>
<path d="M154.938 20.4021H159.836V35.4563H169.446V38.5476H154.938V20.4021Z" fill="#494A64"/>
<path d="M172.164 20.4021H177.062V35.4563H186.672V38.5476H172.164V20.4021Z" fill="#494A64"/>
<path d="M189.111 20.3267H193.916V38.5476H189.111V20.3267Z" fill="#494A64"/>
<path d="M197.894 20.4272L205.737 20.4524C208.558 20.4524 211.286 21.0053 213.27 22.2368C215.471 23.619 216.835 26.1323 216.835 29.2235C216.835 33.4458 214.696 36.713 210.48 37.9947C209.178 38.3968 207.597 38.5476 205.985 38.5476H197.894V20.4272ZM202.761 23.3677V35.5569C203.412 35.5569 204.063 35.6071 204.714 35.6071C205.799 35.6071 206.76 35.5569 207.38 35.4312C211.069 34.7526 211.875 31.6111 211.875 29.1984C211.875 26.7606 210.914 24.0212 207.008 23.4683C206.357 23.3677 205.334 23.3426 204.404 23.3426C203.846 23.3426 203.288 23.3426 202.761 23.3677Z" fill="#494A64"/>
<path d="M220.545 20.377H235.549V23.3426H225.35V27.6653H234.898V30.631H225.35V35.5317H235.89V38.5476H220.545V20.377Z" fill="#494A64"/>
<path d="M239.217 20.4272H246.378C248.735 20.4272 250.471 20.6283 251.587 21.0304C253.85 21.8095 255.276 23.3929 255.276 25.8056C255.276 27.0119 254.935 28.0926 254.315 28.9722C252.889 30.9577 250.657 31.4854 247.867 31.4854H244.084V38.5476H239.217V20.4272ZM243.96 28.5952H246.223C249.107 28.5952 250.316 27.6653 250.316 25.8307C250.316 24.172 249.169 23.3677 246.688 23.3677H243.96V28.5952Z" fill="#494A64"/>
<path d="M258.293 20.4021H263.191V35.4563H272.801V38.5476H258.293V20.4021Z" fill="#494A64"/>
<path d="M283.926 20C286.437 20 288.576 20.4524 290.219 21.3571C293.009 22.8902 294.652 25.7553 294.652 29.2989C294.652 32.4405 293.381 35.5569 290.777 37.2156C289.041 38.3214 286.716 39 283.926 39C277.23 39 273.169 35.6825 273.169 29.7011C273.169 24.1217 276.61 20 283.926 20ZM278.191 29.3995C278.191 32.5159 279.152 36.1349 283.833 36.1349C285.972 36.1349 287.088 35.5569 287.925 34.6772C289.041 33.4709 289.63 31.7116 289.63 29.1984C289.63 26.1574 288.297 22.7897 283.988 22.7897C279.524 22.7897 278.191 26.0066 278.191 29.3995Z" fill="#494A64"/>
<path d="M294.129 20.4524H299.74L304.359 28.7209L309.071 20.4524H314L306.436 31.9378V38.5476H301.693V31.8876L294.129 20.4524Z" fill="#494A64"/>
<path d="M130.057 49.6188C130.794 49.6188 131.367 49.6906 131.778 49.8344C132.196 49.9781 132.491 50.1969 132.661 50.4906C132.832 50.7781 132.917 51.1625 132.917 51.6438C132.917 52.1438 132.824 52.5438 132.638 52.8438C132.46 53.1438 132.161 53.3625 131.743 53.5C131.332 53.6375 130.77 53.7062 130.057 53.7062H128.767V56.125H128V49.6188H130.057ZM129.964 53.1719C130.53 53.1719 130.964 53.1281 131.266 53.0406C131.576 52.9469 131.797 52.7938 131.929 52.5813C132.061 52.3625 132.127 52.05 132.127 51.6438C132.127 51.275 132.061 50.9844 131.929 50.7719C131.797 50.5594 131.572 50.4063 131.255 50.3125C130.945 50.2125 130.515 50.1625 129.964 50.1625H128.767V53.1719H129.964Z" fill="#494A64"/>
<path d="M134.245 53.5938C134.245 52.9375 134.342 52.4188 134.536 52.0375C134.737 51.65 135.039 51.375 135.442 51.2125C135.845 51.05 136.372 50.9688 137.023 50.9688C137.674 50.9688 138.201 51.05 138.604 51.2125C139.007 51.375 139.309 51.65 139.511 52.0375C139.712 52.4188 139.813 52.9375 139.813 53.5938C139.813 54.25 139.712 54.7719 139.511 55.1594C139.309 55.5406 139.007 55.8125 138.604 55.975C138.201 56.1375 137.674 56.2188 137.023 56.2188C136.372 56.2188 135.845 56.1375 135.442 55.975C135.039 55.8125 134.737 55.5406 134.536 55.1594C134.342 54.7719 134.245 54.25 134.245 53.5938ZM139.034 53.5938C139.034 53.0563 138.972 52.6375 138.848 52.3375C138.724 52.0313 138.515 51.8125 138.22 51.6813C137.934 51.55 137.535 51.4844 137.023 51.4844C136.504 51.4844 136.101 51.55 135.814 51.6813C135.527 51.8125 135.322 52.0313 135.198 52.3375C135.082 52.6375 135.024 53.0563 135.024 53.5938C135.024 54.1312 135.086 54.5531 135.21 54.8594C135.334 55.1594 135.539 55.375 135.826 55.5062C136.113 55.6375 136.512 55.7031 137.023 55.7031C137.55 55.7031 137.957 55.6375 138.244 55.5062C138.53 55.375 138.732 55.1594 138.848 54.8594C138.972 54.5594 139.034 54.1375 139.034 53.5938Z" fill="#494A64"/>
<path d="M142.4 56.125L140.68 51.0625H141.424L142.865 55.4969H142.935L144.655 51.0625H145.562L147.317 55.4969H147.387L148.84 51.0625H149.56L147.805 56.125H146.887L145.143 51.7094H145.074L143.318 56.125H142.4Z" fill="#494A64"/>
<path d="M155.498 53.5938L151.139 53.8281C151.147 54.2781 151.217 54.6375 151.349 54.9063C151.488 55.175 151.713 55.3719 152.023 55.4969C152.333 55.6219 152.755 55.6844 153.29 55.6844C153.631 55.6844 153.98 55.6562 154.336 55.6C154.7 55.5375 155.006 55.4594 155.254 55.3656V55.9281C155.053 56.0031 154.754 56.0688 154.359 56.125C153.972 56.1875 153.584 56.2188 153.197 56.2188C152.538 56.2188 152.003 56.1375 151.593 55.975C151.182 55.8125 150.876 55.5406 150.674 55.1594C150.473 54.7719 150.372 54.25 150.372 53.5938C150.372 52.9375 150.473 52.4188 150.674 52.0375C150.876 51.65 151.174 51.375 151.569 51.2125C151.972 51.05 152.496 50.9688 153.139 50.9688C154.084 50.9688 154.72 51.1656 155.045 51.5594C155.371 51.9469 155.533 52.4469 155.533 53.0594C155.533 53.1969 155.522 53.375 155.498 53.5938ZM154.813 53.1344C154.813 52.7656 154.774 52.4656 154.696 52.2344C154.619 52.0031 154.456 51.8188 154.208 51.6813C153.968 51.5438 153.608 51.475 153.127 51.475C152.623 51.475 152.228 51.5438 151.941 51.6813C151.655 51.8125 151.453 52.0125 151.337 52.2812C151.221 52.55 151.155 52.9094 151.139 53.3594L154.813 53.1344Z" fill="#494A64"/>
<path d="M160.142 50.9688L160.118 51.5125H159.979C159.514 51.5125 159.111 51.5969 158.77 51.7656C158.429 51.9344 158.177 52.2313 158.014 52.6563V56.125H157.271V51.0625H158.014V51.9719C158.301 51.3031 158.972 50.9688 160.025 50.9688H160.142Z" fill="#494A64"/>
<path d="M165.86 53.5938L161.501 53.8281C161.508 54.2781 161.578 54.6375 161.71 54.9063C161.849 55.175 162.074 55.3719 162.384 55.4969C162.694 55.6219 163.116 55.6844 163.651 55.6844C163.992 55.6844 164.341 55.6562 164.697 55.6C165.062 55.5375 165.368 55.4594 165.616 55.3656V55.9281C165.414 56.0031 165.116 56.0688 164.721 56.125C164.333 56.1875 163.946 56.2188 163.558 56.2188C162.899 56.2188 162.365 56.1375 161.954 55.975C161.543 55.8125 161.237 55.5406 161.036 55.1594C160.834 54.7719 160.734 54.25 160.734 53.5938C160.734 52.9375 160.834 52.4188 161.036 52.0375C161.237 51.65 161.536 51.375 161.931 51.2125C162.334 51.05 162.857 50.9688 163.5 50.9688C164.445 50.9688 165.081 51.1656 165.406 51.5594C165.732 51.9469 165.895 52.4469 165.895 53.0594C165.895 53.1969 165.883 53.375 165.86 53.5938ZM165.174 53.1344C165.174 52.7656 165.135 52.4656 165.058 52.2344C164.98 52.0031 164.817 51.8188 164.569 51.6813C164.329 51.5438 163.969 51.475 163.488 51.475C162.985 51.475 162.59 51.5438 162.303 51.6813C162.016 51.8125 161.815 52.0125 161.698 52.2812C161.582 52.55 161.516 52.9094 161.501 53.3594L165.174 53.1344Z" fill="#494A64"/>
<path d="M172.688 49V56.125H172.072L171.968 55.1219C171.836 55.4656 171.592 55.7344 171.235 55.9281C170.879 56.1219 170.398 56.2188 169.794 56.2188C168.856 56.2188 168.201 56.0031 167.83 55.5719C167.465 55.1344 167.283 54.475 167.283 53.5938C167.283 52.7688 167.469 52.125 167.841 51.6625C168.221 51.2 168.872 50.9688 169.794 50.9688C170.406 50.9688 170.883 51.0656 171.224 51.2594C171.565 51.4469 171.809 51.7094 171.956 52.0469V49H172.688ZM171.979 53.5938C171.979 52.925 171.82 52.4063 171.503 52.0375C171.193 51.6688 170.658 51.4844 169.899 51.4844C169.403 51.4844 169.019 51.575 168.748 51.7563C168.477 51.9313 168.294 52.1688 168.201 52.4688C168.108 52.7688 168.062 53.1438 168.062 53.5938C168.062 54.0563 168.108 54.4406 168.201 54.7469C168.302 55.0469 168.484 55.2812 168.748 55.45C169.019 55.6188 169.403 55.7031 169.899 55.7031C170.658 55.7031 171.193 55.5219 171.503 55.1594C171.82 54.7969 171.979 54.275 171.979 53.5938Z" fill="#494A64"/>
<path d="M182.978 53.5938C182.978 54.4188 182.792 55.0625 182.421 55.525C182.049 55.9875 181.401 56.2188 180.479 56.2188C179.867 56.2188 179.39 56.125 179.05 55.9375C178.709 55.75 178.464 55.4906 178.317 55.1594L178.213 56.125H177.573V49H178.317V52.0844C178.449 51.7281 178.685 51.4531 179.026 51.2594C179.375 51.0656 179.859 50.9688 180.479 50.9688C181.417 50.9688 182.068 51.1875 182.432 51.625C182.796 52.0563 182.978 52.7125 182.978 53.5938ZM182.211 53.5938C182.211 53.1313 182.161 52.75 182.06 52.45C181.959 52.1438 181.773 51.9063 181.502 51.7375C181.239 51.5688 180.863 51.4844 180.375 51.4844C179.607 51.4844 179.065 51.6656 178.747 52.0281C178.437 52.3906 178.282 52.9125 178.282 53.5938C178.282 54.2625 178.441 54.7812 178.759 55.15C179.077 55.5188 179.615 55.7031 180.375 55.7031C181.095 55.7031 181.58 55.525 181.828 55.1688C182.083 54.8063 182.211 54.2812 182.211 53.5938Z" fill="#494A64"/>
<path d="M184.192 57.4844C184.548 57.4844 184.839 57.4406 185.064 57.3531C185.296 57.2656 185.49 57.1219 185.645 56.9219C185.807 56.7281 185.962 56.4563 186.11 56.1063L183.599 51.0625H184.389L186.47 55.4313H186.54L188.469 51.0625H189.225L186.923 56.0687C186.706 56.525 186.497 56.8844 186.296 57.1469C186.094 57.4156 185.827 57.625 185.494 57.775C185.16 57.925 184.726 58 184.192 58V57.4844Z" fill="#494A64"/>
<path d="M192.645 55.9563V55.3562C192.908 55.4375 193.261 55.5094 193.702 55.5719C194.144 55.6344 194.59 55.6656 195.039 55.6656C195.713 55.6656 196.221 55.5688 196.562 55.375C196.903 55.175 197.073 54.8531 197.073 54.4094C197.073 54.1156 197.011 53.8844 196.887 53.7156C196.771 53.5406 196.574 53.4 196.295 53.2938C196.023 53.1813 195.62 53.0719 195.086 52.9656C194.497 52.8531 194.043 52.7344 193.726 52.6094C193.416 52.4781 193.187 52.3063 193.04 52.0938C192.9 51.8813 192.831 51.5906 192.831 51.2219C192.831 50.0844 193.695 49.5156 195.423 49.5156C195.772 49.5156 196.14 49.5406 196.527 49.5906C196.915 49.6344 197.213 49.6875 197.422 49.75V50.3313C197.159 50.2562 196.849 50.1938 196.492 50.1438C196.136 50.0938 195.775 50.0688 195.411 50.0688C194.783 50.0688 194.322 50.1563 194.028 50.3313C193.733 50.5 193.586 50.7969 193.586 51.2219C193.586 51.4656 193.629 51.6594 193.714 51.8031C193.807 51.9406 193.978 52.0594 194.226 52.1594C194.481 52.2531 194.861 52.3469 195.365 52.4406C195.992 52.5594 196.477 52.6906 196.818 52.8344C197.166 52.9781 197.422 53.1719 197.585 53.4156C197.748 53.6594 197.829 53.9875 197.829 54.4C197.829 55.0188 197.593 55.4781 197.12 55.7781C196.655 56.0719 195.961 56.2188 195.039 56.2188C194.567 56.2188 194.102 56.1906 193.644 56.1344C193.187 56.0781 192.854 56.0188 192.645 55.9563Z" fill="#494A64"/>
<path d="M204.185 53.5938L199.826 53.8281C199.834 54.2781 199.903 54.6375 200.035 54.9063C200.175 55.175 200.399 55.3719 200.709 55.4969C201.019 55.6219 201.442 55.6844 201.976 55.6844C202.317 55.6844 202.666 55.6562 203.022 55.6C203.387 55.5375 203.693 55.4594 203.941 55.3656V55.9281C203.739 56.0031 203.441 56.0688 203.046 56.125C202.658 56.1875 202.271 56.2188 201.883 56.2188C201.225 56.2188 200.69 56.1375 200.279 55.975C199.868 55.8125 199.562 55.5406 199.361 55.1594C199.159 54.7719 199.059 54.25 199.059 53.5938C199.059 52.9375 199.159 52.4188 199.361 52.0375C199.562 51.65 199.861 51.375 200.256 51.2125C200.659 51.05 201.182 50.9688 201.825 50.9688C202.771 50.9688 203.406 51.1656 203.732 51.5594C204.057 51.9469 204.22 52.4469 204.22 53.0594C204.22 53.1969 204.208 53.375 204.185 53.5938ZM203.499 53.1344C203.499 52.7656 203.46 52.4656 203.383 52.2344C203.305 52.0031 203.143 51.8188 202.895 51.6813C202.654 51.5438 202.294 51.475 201.814 51.475C201.31 51.475 200.915 51.5438 200.628 51.6813C200.341 51.8125 200.14 52.0125 200.023 52.2812C199.907 52.55 199.841 52.9094 199.826 53.3594L203.499 53.1344Z" fill="#494A64"/>
<path d="M210.769 52.5438V56.125H210.142L210.025 55.2812C209.847 55.575 209.541 55.8063 209.107 55.975C208.681 56.1375 208.2 56.2188 207.666 56.2188C206.24 56.2188 205.527 55.7219 205.527 54.7281C205.527 54.1406 205.744 53.7281 206.178 53.4906C206.612 53.2531 207.22 53.1344 208.003 53.1344H210.025V52.6469C210.025 52.2531 209.909 51.9625 209.677 51.775C209.444 51.5813 209.006 51.4844 208.363 51.4844C207.883 51.4844 207.418 51.525 206.968 51.6063V51.0625C207.488 51 207.968 50.9688 208.41 50.9688C209.301 50.9688 209.917 51.1063 210.258 51.3812C210.599 51.65 210.769 52.0375 210.769 52.5438ZM210.025 54.6156V53.6313H208.073C207.654 53.6313 207.317 53.6625 207.061 53.725C206.806 53.7812 206.612 53.8906 206.48 54.0531C206.348 54.2094 206.282 54.4344 206.282 54.7281C206.282 55.0531 206.399 55.2969 206.631 55.4594C206.864 55.6156 207.22 55.6938 207.701 55.6938C208.282 55.6938 208.774 55.6 209.177 55.4125C209.588 55.225 209.87 54.9594 210.025 54.6156Z" fill="#494A64"/>
<path d="M212.869 55.1969V49H213.613V55.0375C213.613 55.2875 213.656 55.4563 213.741 55.5438C213.834 55.6313 213.989 55.675 214.206 55.675C214.415 55.675 214.589 55.6594 214.729 55.6281V56.125C214.558 56.1625 214.345 56.1813 214.09 56.1813C213.694 56.1813 213.392 56.1063 213.183 55.9563C212.974 55.8063 212.869 55.5531 212.869 55.1969Z" fill="#494A64"/>
<path d="M215.504 53.5938C215.504 52.9375 215.601 52.4188 215.795 52.0375C215.996 51.65 216.298 51.375 216.701 51.2125C217.104 51.05 217.631 50.9688 218.282 50.9688C218.933 50.9688 219.46 51.05 219.863 51.2125C220.266 51.375 220.568 51.65 220.77 52.0375C220.971 52.4188 221.072 52.9375 221.072 53.5938C221.072 54.25 220.971 54.7719 220.77 55.1594C220.568 55.5406 220.266 55.8125 219.863 55.975C219.46 56.1375 218.933 56.2188 218.282 56.2188C217.631 56.2188 217.104 56.1375 216.701 55.975C216.298 55.8125 215.996 55.5406 215.795 55.1594C215.601 54.7719 215.504 54.25 215.504 53.5938ZM220.293 53.5938C220.293 53.0563 220.231 52.6375 220.107 52.3375C219.983 52.0313 219.774 51.8125 219.479 51.6813C219.193 51.55 218.794 51.4844 218.282 51.4844C217.763 51.4844 217.36 51.55 217.073 51.6813C216.786 51.8125 216.581 52.0313 216.457 52.3375C216.341 52.6375 216.283 53.0563 216.283 53.5938C216.283 54.1312 216.345 54.5531 216.469 54.8594C216.593 55.1594 216.798 55.375 217.085 55.5062C217.372 55.6375 217.771 55.7031 218.282 55.7031C218.809 55.7031 219.216 55.6375 219.503 55.5062C219.789 55.375 219.991 55.1594 220.107 54.8594C220.231 54.5594 220.293 54.1375 220.293 53.5938Z" fill="#494A64"/>
<path d="M222.404 56.0312V55.4969C222.644 55.5469 222.927 55.5906 223.252 55.6281C223.585 55.6594 223.903 55.675 224.205 55.675C224.74 55.675 225.135 55.6063 225.391 55.4688C225.647 55.325 225.775 55.0938 225.775 54.775C225.775 54.5687 225.736 54.4062 225.658 54.2875C225.581 54.1688 225.437 54.0687 225.228 53.9875C225.027 53.9062 224.721 53.825 224.31 53.7438C223.845 53.65 223.485 53.55 223.229 53.4437C222.981 53.3375 222.799 53.2 222.683 53.0312C222.574 52.8563 222.52 52.6219 222.52 52.3281C222.52 51.8969 222.706 51.5625 223.078 51.325C223.45 51.0875 223.973 50.9688 224.647 50.9688C224.949 50.9688 225.251 50.9875 225.554 51.025C225.856 51.0563 226.088 51.0938 226.251 51.1375L226.205 51.6719C226.011 51.6156 225.775 51.5688 225.496 51.5313C225.217 51.4938 224.934 51.475 224.647 51.475C224.182 51.475 223.829 51.5406 223.589 51.6719C223.349 51.8031 223.229 52.025 223.229 52.3375C223.229 52.5375 223.272 52.6938 223.357 52.8063C223.442 52.9125 223.57 52.9969 223.74 53.0594C223.911 53.1156 224.17 53.1781 224.519 53.2469C225.015 53.3406 225.399 53.4469 225.67 53.5656C225.949 53.6781 226.154 53.8281 226.286 54.0156C226.418 54.1969 226.484 54.4438 226.484 54.7563C226.484 55.2188 226.294 55.5719 225.914 55.8156C225.542 56.0594 224.976 56.1813 224.217 56.1813C223.907 56.1813 223.581 56.1656 223.241 56.1344C222.9 56.1094 222.621 56.075 222.404 56.0312Z" fill="#494A64"/>
<path d="M230.447 58V49H231.168V58H230.447Z" fill="#494A64"/>
<path d="M235.332 52.8719C235.332 51.6656 235.653 50.8063 236.296 50.2938C236.947 49.7812 237.904 49.525 239.167 49.525C239.555 49.525 239.939 49.5469 240.318 49.5906C240.706 49.6344 241.016 49.6937 241.248 49.7688V50.35C240.698 50.1688 240.016 50.0781 239.202 50.0781C238.544 50.0781 237.993 50.1563 237.552 50.3125C237.11 50.4688 236.761 50.7531 236.506 51.1656C236.258 51.5719 236.134 52.1406 236.134 52.8719C236.134 53.6406 236.254 54.2281 236.494 54.6344C236.734 55.0406 237.067 55.3156 237.494 55.4594C237.928 55.6031 238.486 55.675 239.167 55.675C239.741 55.675 240.233 55.6219 240.644 55.5156V53.275H238.935V52.7406H241.399V55.9563C240.725 56.1313 239.939 56.2188 239.04 56.2188C238.218 56.2188 237.54 56.125 237.005 55.9375C236.471 55.75 236.056 55.4125 235.762 54.925C235.475 54.4313 235.332 53.7469 235.332 52.8719Z" fill="#494A64"/>
<path d="M243.223 49.6375C243.223 49.475 243.254 49.3719 243.316 49.3281C243.386 49.2781 243.514 49.2531 243.7 49.2531C243.87 49.2531 243.986 49.2781 244.048 49.3281C244.118 49.3719 244.153 49.475 244.153 49.6375C244.153 49.8 244.118 49.9063 244.048 49.9562C243.986 50 243.87 50.0219 243.7 50.0219C243.514 50.0219 243.386 50 243.316 49.9562C243.254 49.9063 243.223 49.8 243.223 49.6375ZM243.316 56.125V51.0625H244.06V56.125H243.316Z" fill="#494A64"/>
<path d="M248.652 55.6V56.125C248.326 56.1625 248.07 56.1813 247.884 56.1813C247.443 56.1813 247.102 56.1406 246.861 56.0594C246.621 55.9781 246.447 55.825 246.338 55.6C246.23 55.375 246.176 55.0406 246.176 54.5969V51.5781H245.199V51.0625H246.176V49.8625H246.908V51.0625H248.57V51.5781H246.908V54.5875C246.908 54.8812 246.935 55.1031 246.989 55.2531C247.044 55.4031 247.137 55.5094 247.268 55.5719C247.408 55.6344 247.613 55.6656 247.884 55.6656C248.171 55.6656 248.427 55.6438 248.652 55.6Z" fill="#494A64"/>
<path d="M254.863 49.6188H255.653V56.125H254.863V52.8813H250.562V56.125H249.795V49.6188H250.562V52.3469H254.863V49.6188Z" fill="#494A64"/>
<path d="M262.517 51.0625V56.125H261.89L261.785 55.3094C261.653 55.6281 261.397 55.8594 261.018 56.0031C260.646 56.1469 260.223 56.2188 259.751 56.2188C258.984 56.2188 258.449 56.0813 258.147 55.8063C257.844 55.5312 257.693 55.125 257.693 54.5875V51.0625H258.426V54.3063C258.426 54.6375 258.464 54.9031 258.542 55.1031C258.619 55.2969 258.759 55.4438 258.96 55.5438C259.162 55.6375 259.452 55.6844 259.832 55.6844C260.313 55.6844 260.719 55.6063 261.053 55.45C261.394 55.2938 261.634 55 261.773 54.5687V51.0625H262.517Z" fill="#494A64"/>
<path d="M270 53.5938C270 54.4188 269.814 55.0625 269.442 55.525C269.07 55.9875 268.423 56.2188 267.501 56.2188C266.889 56.2188 266.412 56.125 266.071 55.9375C265.73 55.75 265.486 55.4906 265.339 55.1594L265.234 56.125H264.595V49H265.339V52.0844C265.47 51.7281 265.707 51.4531 266.048 51.2594C266.397 51.0656 266.881 50.9688 267.501 50.9688C268.438 50.9688 269.089 51.1875 269.454 51.625C269.818 52.0563 270 52.7125 270 53.5938ZM269.233 53.5938C269.233 53.1313 269.182 52.75 269.082 52.45C268.981 52.1438 268.795 51.9063 268.524 51.7375C268.26 51.5688 267.884 51.4844 267.396 51.4844C266.629 51.4844 266.087 51.6656 265.769 52.0281C265.459 52.3906 265.304 52.9125 265.304 53.5938C265.304 54.2625 265.463 54.7812 265.78 55.15C266.098 55.5188 266.637 55.7031 267.396 55.7031C268.117 55.7031 268.601 55.525 268.849 55.1688C269.105 54.8063 269.233 54.2812 269.233 53.5938Z" fill="#494A64"/>
<defs>
<filter id="filter0_d_708_3896" x="7" y="0" width="72" height="72" filterUnits="userSpaceOnUse" color-interpolation-filters="sRGB">
<feFlood flood-opacity="0" result="BackgroundImageFix"/>
<feColorMatrix in="SourceAlpha" type="matrix" values="0 0 0 0 0 0 0 0 0 0 0 0 0 0 0 0 0 0 127 0" result="hardAlpha"/>
<feOffset dy="4"/>
<feGaussianBlur stdDeviation="3"/>
<feComposite in2="hardAlpha" operator="out"/>
<feColorMatrix type="matrix" values="0 0 0 0 0.72998 0 0 0 0 0.72998 0 0 0 0 0.72998 0 0 0 0.25 0"/>
<feBlend mode="normal" in2="BackgroundImageFix" result="effect1_dropShadow_708_3896"/>
<feBlend mode="normal" in="SourceGraphic" in2="effect1_dropShadow_708_3896" result="shape"/>
</filter>
</defs>
</svg>
