<svg width="2018" height="949" viewBox="0 0 2018 949" fill="none" xmlns="http://www.w3.org/2000/svg">
<path d="M561.433 443.359C563.957 443.238 566.102 442.246 567.865 440.385C569.628 438.523 570.51 436.318 570.51 433.748C570.51 436.318 571.392 438.523 573.155 440.385C574.918 442.246 577.062 443.218 579.607 443.359C577.944 443.44 576.421 443.906 575.018 444.796C573.636 445.666 572.534 446.84 571.712 448.297C570.911 449.753 570.51 451.312 570.51 453.011C570.51 450.441 569.628 448.216 567.865 446.354C566.102 444.472 563.957 443.481 561.433 443.359Z" fill="white" fill-opacity="0.19"/>
<path d="M513.75 608.421C515.55 608.335 517.078 607.635 518.335 606.32C519.592 605.005 520.221 603.447 520.221 601.632C520.221 603.447 520.849 605.005 522.106 606.32C523.363 607.635 524.891 608.321 526.706 608.421C525.52 608.478 524.434 608.807 523.434 609.435C522.449 610.05 521.663 610.879 521.078 611.908C520.506 612.937 520.221 614.038 520.221 615.238C520.221 613.423 519.592 611.851 518.335 610.536C517.078 609.207 515.55 608.506 513.75 608.421Z" fill="white" fill-opacity="0.19"/>
<path d="M617.228 395.94C619.244 395.841 620.956 395.033 622.363 393.516C623.771 391.999 624.475 390.201 624.475 388.107C624.475 390.201 625.179 391.999 626.587 393.516C627.995 395.033 629.707 395.825 631.738 395.94C630.41 396.006 629.195 396.386 628.075 397.111C626.971 397.82 626.091 398.777 625.435 399.964C624.795 401.151 624.475 402.421 624.475 403.806C624.475 401.712 623.771 399.898 622.363 398.381C620.956 396.847 619.244 396.039 617.228 395.94Z" fill="white" fill-opacity="0.19"/>
<path d="M661.963 437.824C663.33 437.758 664.492 437.219 665.447 436.208C666.403 435.197 666.88 433.998 666.88 432.602C666.88 433.998 667.358 435.197 668.313 436.208C669.269 437.219 670.43 437.747 671.809 437.824C670.908 437.868 670.083 438.121 669.323 438.605C668.574 439.077 667.977 439.715 667.532 440.507C667.098 441.298 666.88 442.145 666.88 443.068C666.88 441.672 666.403 440.463 665.447 439.451C664.492 438.429 663.33 437.89 661.963 437.824Z" fill="white" fill-opacity="0.19"/>
<path d="M477.479 379.312C478.847 379.246 480.009 378.708 480.964 377.696C481.919 376.685 482.397 375.486 482.397 374.09C482.397 375.486 482.875 376.685 483.83 377.696C484.785 378.708 485.947 379.235 487.326 379.312C486.425 379.356 485.6 379.609 484.84 380.093C484.091 380.566 483.494 381.203 483.048 381.995C482.614 382.786 482.397 383.633 482.397 384.556C482.397 383.16 481.919 381.951 480.964 380.939C480.009 379.917 478.847 379.378 477.479 379.312Z" fill="white" fill-opacity="0.19"/>
<path d="M721.041 365.386C723.566 365.264 725.71 364.273 727.473 362.411C729.237 360.55 730.118 358.344 730.118 355.774C730.118 358.344 731 360.55 732.763 362.411C734.527 364.273 736.671 365.244 739.216 365.386C737.553 365.467 736.03 365.932 734.627 366.822C733.244 367.692 732.142 368.866 731.321 370.323C730.519 371.78 730.118 373.338 730.118 375.038C730.118 372.468 729.237 370.242 727.473 368.38C725.71 366.499 723.566 365.507 721.041 365.386Z" fill="white" fill-opacity="0.19"/>
<path d="M733.997 543.531C735.653 543.452 737.059 542.805 738.215 541.592C739.372 540.378 739.95 538.94 739.95 537.264C739.95 538.94 740.528 540.378 741.684 541.592C742.841 542.805 744.247 543.439 745.916 543.531C744.825 543.584 743.826 543.887 742.907 544.468C742 545.035 741.277 545.8 740.738 546.75C740.213 547.7 739.95 548.716 739.95 549.824C739.95 548.149 739.372 546.697 738.215 545.484C737.059 544.257 735.653 543.61 733.997 543.531Z" fill="white" fill-opacity="0.19"/>
<path d="M549.513 485.019C551.169 484.94 552.575 484.294 553.732 483.08C554.888 481.866 555.466 480.428 555.466 478.753C555.466 480.428 556.045 481.866 557.201 483.08C558.358 484.294 559.764 484.927 561.433 485.019C560.342 485.072 559.343 485.375 558.423 485.956C557.517 486.523 556.794 487.288 556.255 488.238C555.729 489.188 555.466 490.204 555.466 491.312C555.466 489.637 554.888 488.185 553.732 486.972C552.575 485.745 551.169 485.098 549.513 485.019Z" fill="white" fill-opacity="0.19"/>
<path d="M1833.07 490.981C1835.6 490.86 1837.74 489.868 1839.5 488.007C1841.27 486.145 1842.15 483.939 1842.15 481.37C1842.15 483.939 1843.03 486.145 1844.79 488.007C1846.56 489.868 1848.7 490.839 1851.25 490.981C1849.58 491.062 1848.06 491.527 1846.66 492.418C1845.28 493.288 1844.17 494.461 1843.35 495.918C1842.55 497.375 1842.15 498.933 1842.15 500.633C1842.15 498.063 1841.27 495.837 1839.5 493.976C1837.74 492.094 1835.6 491.102 1833.07 490.981Z" fill="white" fill-opacity="0.19"/>
<path d="M1785.39 656.042C1787.19 655.957 1788.72 655.256 1789.97 653.941C1791.23 652.627 1791.86 651.069 1791.86 649.254C1791.86 651.069 1792.49 652.627 1793.75 653.941C1795 655.256 1796.53 655.942 1798.35 656.042C1797.16 656.1 1796.07 656.428 1795.07 657.057C1794.09 657.672 1793.3 658.501 1792.72 659.53C1792.15 660.559 1791.86 661.659 1791.86 662.86C1791.86 661.045 1791.23 659.473 1789.97 658.158C1788.72 656.828 1787.19 656.128 1785.39 656.042Z" fill="white" fill-opacity="0.19"/>
<path d="M1888.87 443.562C1890.88 443.463 1892.6 442.655 1894 441.138C1895.41 439.621 1896.11 437.823 1896.11 435.729C1896.11 437.823 1896.82 439.621 1898.23 441.138C1899.63 442.655 1901.35 443.447 1903.38 443.562C1902.05 443.628 1900.83 444.007 1899.71 444.733C1898.61 445.442 1897.73 446.398 1897.07 447.586C1896.43 448.773 1896.11 450.043 1896.11 451.428C1896.11 449.334 1895.41 447.52 1894 446.003C1892.6 444.469 1890.88 443.661 1888.87 443.562Z" fill="white" fill-opacity="0.19"/>
<path d="M1933.6 485.446C1934.97 485.38 1936.13 484.841 1937.09 483.83C1938.04 482.818 1938.52 481.62 1938.52 480.224C1938.52 481.62 1939 482.818 1939.95 483.83C1940.91 484.841 1942.07 485.369 1943.45 485.446C1942.55 485.49 1941.72 485.743 1940.96 486.226C1940.21 486.699 1939.62 487.337 1939.17 488.128C1938.74 488.92 1938.52 489.766 1938.52 490.69C1938.52 489.294 1938.04 488.084 1937.09 487.073C1936.13 486.051 1934.97 485.512 1933.6 485.446Z" fill="white" fill-opacity="0.19"/>
<path d="M1749.12 426.934C1750.49 426.868 1751.65 426.329 1752.6 425.318C1753.56 424.306 1754.04 423.108 1754.04 421.712C1754.04 423.108 1754.51 424.306 1755.47 425.318C1756.43 426.329 1757.59 426.857 1758.97 426.934C1758.06 426.978 1757.24 427.231 1756.48 427.715C1755.73 428.187 1755.13 428.825 1754.69 429.616C1754.25 430.408 1754.04 431.255 1754.04 432.178C1754.04 430.782 1753.56 429.573 1752.6 428.561C1751.65 427.539 1750.49 427 1749.12 426.934Z" fill="white" fill-opacity="0.19"/>
<path d="M1992.68 413.007C1995.21 412.886 1997.35 411.894 1999.11 410.033C2000.88 408.171 2001.76 405.966 2001.76 403.396C2001.76 405.966 2002.64 408.171 2004.4 410.033C2006.17 411.894 2008.31 412.866 2010.86 413.007C2009.19 413.088 2007.67 413.554 2006.27 414.444C2004.88 415.314 2003.78 416.488 2002.96 417.945C2002.16 419.402 2001.76 420.96 2001.76 422.659C2001.76 420.09 2000.88 417.864 1999.11 416.002C1997.35 414.12 1995.21 413.129 1992.68 413.007Z" fill="white" fill-opacity="0.19"/>
<path d="M2005.64 591.153C2007.29 591.074 2008.7 590.427 2009.85 589.213C2011.01 588 2011.59 586.562 2011.59 584.886C2011.59 586.562 2012.17 588 2013.32 589.213C2014.48 590.427 2015.89 591.06 2017.56 591.153C2016.46 591.206 2015.47 591.509 2014.55 592.089C2013.64 592.657 2012.92 593.422 2012.38 594.372C2011.85 595.322 2011.59 596.338 2011.59 597.446C2011.59 595.77 2011.01 594.319 2009.85 593.105C2008.7 591.878 2007.29 591.232 2005.64 591.153Z" fill="white" fill-opacity="0.19"/>
<path d="M1821.15 532.641C1822.81 532.562 1824.22 531.915 1825.37 530.702C1826.53 529.488 1827.11 528.05 1827.11 526.374C1827.11 528.05 1827.68 529.488 1828.84 530.702C1830 531.915 1831.4 532.549 1833.07 532.641C1831.98 532.694 1830.98 532.997 1830.06 533.578C1829.16 534.145 1828.43 534.91 1827.89 535.86C1827.37 536.81 1827.11 537.826 1827.11 538.934C1827.11 537.258 1826.53 535.807 1825.37 534.593C1824.22 533.366 1822.81 532.72 1821.15 532.641Z" fill="white" fill-opacity="0.19"/>
<path d="M948.575 259.662C948.695 262.211 949.677 264.376 951.521 266.157C953.364 267.938 955.548 268.828 958.093 268.828C955.548 268.828 953.364 269.718 951.521 271.499C949.677 273.28 948.715 275.445 948.575 278.015C948.495 276.335 948.034 274.797 947.152 273.381C946.291 271.985 945.129 270.872 943.686 270.042C942.243 269.233 940.7 268.828 939.017 268.828C941.562 268.828 943.766 267.938 945.61 266.157C947.473 264.376 948.455 262.211 948.575 259.662Z" fill="white" fill-opacity="0.4"/>
<path d="M785.118 211.511C785.203 213.329 785.896 214.872 787.198 216.141C788.5 217.411 790.043 218.045 791.84 218.045C790.043 218.045 788.5 218.68 787.198 219.949C785.896 221.219 785.217 222.762 785.118 224.594C785.061 223.397 784.735 222.3 784.113 221.291C783.504 220.296 782.683 219.502 781.664 218.911C780.645 218.334 779.555 218.045 778.367 218.045C780.164 218.045 781.721 217.411 783.023 216.141C784.339 214.872 785.033 213.329 785.118 211.511Z" fill="white" fill-opacity="0.4"/>
<path d="M995.534 316.005C995.632 318.04 996.432 319.769 997.935 321.19C999.437 322.612 1001.22 323.323 1003.29 323.323C1001.22 323.323 999.437 324.034 997.935 325.455C996.432 326.877 995.648 328.606 995.534 330.657C995.469 329.317 995.093 328.089 994.374 326.958C993.672 325.843 992.725 324.955 991.549 324.292C990.373 323.646 989.116 323.323 987.744 323.323C989.818 323.323 991.615 322.612 993.117 321.19C994.636 319.769 995.436 318.04 995.534 316.005Z" fill="white" fill-opacity="0.4"/>
<path d="M954.057 361.179C954.122 362.56 954.656 363.733 955.657 364.698C956.659 365.663 957.846 366.145 959.228 366.145C957.846 366.145 956.659 366.627 955.657 367.592C954.656 368.557 954.133 369.73 954.057 371.122C954.013 370.212 953.763 369.379 953.284 368.611C952.816 367.855 952.184 367.252 951.4 366.803C950.617 366.364 949.778 366.145 948.864 366.145C950.246 366.145 951.444 365.663 952.446 364.698C953.458 363.733 953.992 362.56 954.057 361.179Z" fill="white" fill-opacity="0.4"/>
<path d="M1012 174.885C1012.07 176.266 1012.6 177.439 1013.6 178.404C1014.6 179.369 1015.79 179.851 1017.17 179.851C1015.79 179.851 1014.6 180.333 1013.6 181.298C1012.6 182.263 1012.08 183.436 1012 184.828C1011.96 183.918 1011.71 183.085 1011.23 182.318C1010.76 181.561 1010.13 180.958 1009.34 180.509C1008.56 180.07 1007.72 179.851 1006.81 179.851C1008.19 179.851 1009.39 179.369 1010.39 178.404C1011.4 177.439 1011.93 176.266 1012 174.885Z" fill="white" fill-opacity="0.4"/>
<path d="M1025.79 420.836C1025.91 423.386 1026.89 425.551 1028.74 427.331C1030.58 429.112 1032.76 430.002 1035.31 430.002C1032.76 430.002 1030.58 430.893 1028.74 432.673C1026.89 434.454 1025.93 436.619 1025.79 439.189C1025.71 437.51 1025.25 435.972 1024.37 434.555C1023.51 433.159 1022.34 432.046 1020.9 431.217C1019.46 430.407 1017.92 430.002 1016.23 430.002C1018.78 430.002 1020.98 429.112 1022.83 427.331C1024.69 425.551 1025.67 423.386 1025.79 420.836Z" fill="white" fill-opacity="0.4"/>
<path d="M849.377 433.919C849.455 435.591 850.095 437.011 851.297 438.179C852.499 439.347 853.923 439.931 855.582 439.931C853.923 439.931 852.499 440.515 851.297 441.682C850.095 442.85 849.468 444.27 849.377 445.955C849.324 444.854 849.024 443.845 848.449 442.917C847.887 442.001 847.129 441.271 846.189 440.727C845.248 440.196 844.242 439.931 843.145 439.931C844.804 439.931 846.241 439.347 847.443 438.179C848.658 437.011 849.298 435.591 849.377 433.919Z" fill="white" fill-opacity="0.4"/>
<path d="M907.32 247.625C907.398 249.297 908.038 250.717 909.24 251.885C910.442 253.053 911.866 253.637 913.526 253.637C911.866 253.637 910.442 254.221 909.24 255.388C908.038 256.556 907.411 257.976 907.32 259.662C907.268 258.56 906.967 257.552 906.392 256.623C905.831 255.707 905.073 254.977 904.132 254.433C903.192 253.902 902.186 253.637 901.088 253.637C902.747 253.637 904.184 253.053 905.386 251.885C906.601 250.717 907.242 249.297 907.32 247.625Z" fill="white" fill-opacity="0.4"/>
<path d="M1420.5 98.8538C1420.64 101.827 1421.79 104.351 1423.94 106.428C1426.09 108.504 1428.63 109.542 1431.6 109.542C1428.63 109.542 1426.09 110.58 1423.94 112.657C1421.79 114.733 1420.67 117.258 1420.5 120.254C1420.41 118.296 1419.87 116.503 1418.84 114.851C1417.84 113.223 1416.48 111.925 1414.8 110.958C1413.12 110.014 1411.32 109.542 1409.36 109.542C1412.32 109.542 1414.89 108.504 1417.04 106.428C1419.22 104.351 1420.36 101.827 1420.5 98.8538Z" fill="white" fill-opacity="0.4"/>
<path d="M1229.9 42.7078C1230 44.827 1230.81 46.6267 1232.33 48.1068C1233.85 49.5869 1235.65 50.327 1237.74 50.327C1235.65 50.327 1233.85 51.067 1232.33 52.5471C1230.81 54.0273 1230.02 55.8269 1229.9 57.963C1229.84 56.567 1229.46 55.2887 1228.73 54.1113C1228.02 52.9508 1227.06 52.0257 1225.88 51.3362C1224.69 50.6634 1223.42 50.327 1222.03 50.327C1224.13 50.327 1225.94 49.5869 1227.46 48.1068C1229 46.6267 1229.8 44.827 1229.9 42.7078Z" fill="white" fill-opacity="0.4"/>
<path d="M1475.26 164.552C1475.37 166.926 1476.31 168.941 1478.06 170.599C1479.81 172.257 1481.89 173.086 1484.3 173.086C1481.89 173.086 1479.81 173.915 1478.06 175.572C1476.31 177.23 1475.39 179.246 1475.26 181.638C1475.18 180.074 1474.74 178.643 1473.91 177.324C1473.09 176.024 1471.98 174.988 1470.61 174.216C1469.24 173.462 1467.77 173.086 1466.18 173.086C1468.59 173.086 1470.69 172.257 1472.44 170.599C1474.21 168.941 1475.14 166.926 1475.26 164.552Z" fill="white" fill-opacity="0.4"/>
<path d="M1426.89 217.227C1426.97 218.838 1427.59 220.205 1428.76 221.33C1429.93 222.455 1431.31 223.018 1432.92 223.018C1431.31 223.018 1429.93 223.58 1428.76 224.705C1427.59 225.83 1426.98 227.198 1426.89 228.821C1426.84 227.76 1426.55 226.789 1425.99 225.894C1425.45 225.012 1424.71 224.309 1423.8 223.785C1422.88 223.273 1421.91 223.018 1420.84 223.018C1422.45 223.018 1423.85 222.455 1425.02 221.33C1426.2 220.205 1426.82 218.838 1426.89 217.227Z" fill="white" fill-opacity="0.4"/>
<path d="M1494.46 -2.6617e-07C1494.54 1.61062 1495.16 2.97838 1496.33 4.10326C1497.49 5.22814 1498.88 5.79058 1500.49 5.79058C1498.88 5.79058 1497.49 6.35302 1496.33 7.4779C1495.16 8.60278 1494.55 9.97053 1494.46 11.5939C1494.41 10.533 1494.12 9.56149 1493.56 8.66669C1493.01 7.78469 1492.28 7.08164 1491.36 6.55754C1490.45 6.04623 1489.47 5.79058 1488.4 5.79058C1490.02 5.79058 1491.41 5.22814 1492.58 4.10326C1493.76 2.97838 1494.38 1.61062 1494.46 -2.6617e-07Z" fill="white" fill-opacity="0.4"/>
<path d="M1510.54 286.791C1510.68 289.764 1511.83 292.289 1513.97 294.365C1516.12 296.441 1518.67 297.48 1521.64 297.48C1518.67 297.48 1516.12 298.518 1513.97 300.594C1511.83 302.67 1510.7 305.195 1510.54 308.192C1510.45 306.233 1509.91 304.44 1508.88 302.788C1507.88 301.16 1506.52 299.863 1504.84 298.895C1503.16 297.951 1501.36 297.48 1499.39 297.48C1502.36 297.48 1504.93 296.441 1507.08 294.365C1509.26 292.289 1510.4 289.764 1510.54 286.791Z" fill="white" fill-opacity="0.4"/>
<path d="M1304.83 302.046C1304.92 303.996 1305.67 305.652 1307.07 307.013C1308.47 308.375 1310.13 309.056 1312.07 309.056C1310.13 309.056 1308.47 309.737 1307.07 311.098C1305.67 312.46 1304.94 314.116 1304.83 316.081C1304.77 314.797 1304.42 313.621 1303.75 312.538C1303.1 311.47 1302.21 310.619 1301.12 309.984C1300.02 309.365 1298.85 309.056 1297.57 309.056C1299.5 309.056 1301.18 308.375 1302.58 307.013C1303.99 305.652 1304.74 303.996 1304.83 302.046Z" fill="white" fill-opacity="0.4"/>
<path d="M1372.4 84.8188C1372.49 86.7685 1373.23 88.4242 1374.64 89.7859C1376.04 91.1476 1377.7 91.8284 1379.63 91.8284C1377.7 91.8284 1376.04 92.5093 1374.64 93.871C1373.23 95.2327 1372.5 96.8884 1372.4 98.8535C1372.34 97.5692 1371.99 96.3932 1371.31 95.31C1370.66 94.2423 1369.78 93.3913 1368.68 92.7568C1367.58 92.1379 1366.41 91.8284 1365.13 91.8284C1367.06 91.8284 1368.74 91.1476 1370.14 89.7859C1371.56 88.4242 1372.31 86.7685 1372.4 84.8188Z" fill="white" fill-opacity="0.4"/>
<path d="M1231.34 469.964C1231.46 472.513 1232.44 474.678 1234.28 476.459C1236.13 478.24 1238.31 479.13 1240.86 479.13C1238.31 479.13 1236.13 480.02 1234.28 481.801C1232.44 483.582 1231.48 485.747 1231.34 488.317C1231.26 486.637 1230.8 485.099 1229.92 483.683C1229.05 482.287 1227.89 481.174 1226.45 480.344C1225.01 479.535 1223.46 479.13 1221.78 479.13C1224.33 479.13 1226.53 478.24 1228.37 476.459C1230.24 474.678 1231.22 472.513 1231.34 469.964Z" fill="white" fill-opacity="0.19"/>
<path d="M1067.88 421.813C1067.97 423.63 1068.66 425.174 1069.96 426.443C1071.26 427.712 1072.81 428.347 1074.6 428.347C1072.81 428.347 1071.26 428.982 1069.96 430.251C1068.66 431.52 1067.98 433.064 1067.88 434.896C1067.82 433.699 1067.5 432.602 1066.88 431.593C1066.27 430.597 1065.45 429.804 1064.43 429.213C1063.41 428.636 1062.32 428.347 1061.13 428.347C1062.93 428.347 1064.48 427.712 1065.79 426.443C1067.1 425.174 1067.8 423.63 1067.88 421.813Z" fill="white" fill-opacity="0.19"/>
<path d="M1278.3 526.306C1278.4 528.342 1279.2 530.071 1280.7 531.492C1282.2 532.914 1283.98 533.625 1286.05 533.625C1283.98 533.625 1282.2 534.336 1280.7 535.757C1279.2 537.179 1278.41 538.907 1278.3 540.959C1278.23 539.618 1277.86 538.391 1277.14 537.26C1276.44 536.145 1275.49 535.256 1274.31 534.594C1273.14 533.948 1271.88 533.625 1270.51 533.625C1272.58 533.625 1274.38 532.914 1275.88 531.492C1277.4 530.071 1278.2 528.342 1278.3 526.306Z" fill="white" fill-opacity="0.19"/>
<path d="M1236.82 571.48C1236.89 572.862 1237.42 574.034 1238.42 574.999C1239.42 575.964 1240.61 576.446 1241.99 576.446C1240.61 576.446 1239.42 576.929 1238.42 577.893C1237.42 578.858 1236.9 580.031 1236.82 581.423C1236.78 580.513 1236.53 579.68 1236.05 578.913C1235.58 578.156 1234.95 577.553 1234.16 577.104C1233.38 576.665 1232.54 576.446 1231.63 576.446C1233.01 576.446 1234.21 575.964 1235.21 574.999C1236.22 574.034 1236.76 572.862 1236.82 571.48Z" fill="white" fill-opacity="0.19"/>
<path d="M1294.76 385.187C1294.83 386.568 1295.36 387.741 1296.36 388.706C1297.37 389.67 1298.55 390.153 1299.94 390.153C1298.55 390.153 1297.37 390.635 1296.36 391.6C1295.36 392.565 1294.84 393.738 1294.76 395.13C1294.72 394.22 1294.47 393.387 1293.99 392.619C1293.52 391.863 1292.89 391.26 1292.11 390.811C1291.32 390.372 1290.49 390.153 1289.57 390.153C1290.95 390.153 1292.15 389.67 1293.15 388.706C1294.17 387.741 1294.7 386.568 1294.76 385.187Z" fill="white" fill-opacity="0.19"/>
<path d="M1308.56 631.138C1308.68 633.688 1309.66 635.853 1311.5 637.633C1313.34 639.414 1315.53 640.304 1318.07 640.304C1315.53 640.304 1313.34 641.195 1311.5 642.975C1309.66 644.756 1308.7 646.921 1308.56 649.491C1308.47 647.811 1308.01 646.274 1307.13 644.857C1306.27 643.461 1305.11 642.348 1303.67 641.518C1302.22 640.709 1300.68 640.304 1299 640.304C1301.54 640.304 1303.75 639.414 1305.59 637.633C1307.45 635.853 1308.43 633.688 1308.56 631.138Z" fill="white" fill-opacity="0.19"/>
<path d="M1132.14 644.221C1132.22 645.893 1132.86 647.313 1134.06 648.481C1135.26 649.649 1136.69 650.233 1138.35 650.233C1136.69 650.233 1135.26 650.816 1134.06 651.984C1132.86 653.152 1132.23 654.572 1132.14 656.257C1132.09 655.156 1131.79 654.147 1131.21 653.218C1130.65 652.303 1129.89 651.573 1128.95 651.029C1128.01 650.498 1127.01 650.233 1125.91 650.233C1127.57 650.233 1129 649.649 1130.21 648.481C1131.42 647.313 1132.06 645.893 1132.14 644.221Z" fill="white" fill-opacity="0.19"/>
<path d="M1190.08 457.927C1190.16 459.599 1190.8 461.019 1192 462.187C1193.21 463.355 1194.63 463.939 1196.29 463.939C1194.63 463.939 1193.21 464.523 1192 465.69C1190.8 466.858 1190.18 468.278 1190.08 469.963C1190.03 468.862 1189.73 467.853 1189.16 466.924C1188.59 466.009 1187.84 465.279 1186.9 464.735C1185.96 464.204 1184.95 463.939 1183.85 463.939C1185.51 463.939 1186.95 463.355 1188.15 462.187C1189.37 461.019 1190.01 459.599 1190.08 457.927Z" fill="white" fill-opacity="0.19"/>
<path d="M170.209 762.707C170.329 765.256 171.311 767.421 173.155 769.202C174.998 770.983 177.182 771.873 179.727 771.873C177.182 771.873 174.998 772.763 173.155 774.544C171.311 776.325 170.349 778.49 170.209 781.06C170.129 779.38 169.668 777.842 168.786 776.426C167.925 775.03 166.762 773.917 165.32 773.087C163.877 772.278 162.334 771.873 160.651 771.873C163.196 771.873 165.4 770.983 167.243 769.202C169.107 767.421 170.089 765.256 170.209 762.707Z" fill="white" fill-opacity="0.19"/>
<path d="M6.75152 714.556C6.83644 716.373 7.52995 717.917 8.83206 719.186C10.1342 720.455 11.6769 721.09 13.4743 721.09C11.6769 721.09 10.1342 721.725 8.83206 722.994C7.52995 724.263 6.8506 725.807 6.75152 727.639C6.69491 726.442 6.36938 725.345 5.74664 724.336C5.13805 723.34 4.31716 722.547 3.29812 721.956C2.27908 721.379 1.18928 721.09 0.000400368 721.09C1.79787 721.09 3.35473 720.455 4.65684 719.186C5.97309 717.917 6.6666 716.373 6.75152 714.556Z" fill="white" fill-opacity="0.19"/>
<path d="M217.168 819.049C217.266 821.085 218.066 822.814 219.568 824.235C221.071 825.657 222.851 826.368 224.925 826.368C222.851 826.368 221.071 827.079 219.568 828.5C218.066 829.922 217.282 831.65 217.168 833.702C217.102 832.361 216.727 831.134 216.008 830.003C215.306 828.888 214.359 827.999 213.183 827.337C212.007 826.691 210.75 826.368 209.378 826.368C211.452 826.368 213.248 825.657 214.751 824.235C216.27 822.814 217.07 821.085 217.168 819.049Z" fill="white" fill-opacity="0.19"/>
<path d="M175.691 864.223C175.756 865.605 176.29 866.777 177.291 867.742C178.293 868.707 179.48 869.189 180.862 869.189C179.48 869.189 178.293 869.672 177.291 870.636C176.29 871.601 175.767 872.774 175.691 874.166C175.647 873.256 175.397 872.423 174.918 871.656C174.45 870.899 173.818 870.296 173.034 869.847C172.251 869.408 171.412 869.189 170.498 869.189C171.88 869.189 173.078 868.707 174.08 867.742C175.092 866.777 175.626 865.605 175.691 864.223Z" fill="white" fill-opacity="0.19"/>
<path d="M233.634 677.93C233.7 679.311 234.233 680.484 235.235 681.449C236.236 682.413 237.423 682.896 238.806 682.896C237.423 682.896 236.236 683.378 235.235 684.343C234.233 685.308 233.71 686.481 233.634 687.873C233.591 686.963 233.34 686.13 232.861 685.362C232.393 684.606 231.762 684.003 230.978 683.554C230.194 683.115 229.356 682.896 228.441 682.896C229.824 682.896 231.021 682.413 232.023 681.449C233.035 680.484 233.569 679.311 233.634 677.93Z" fill="white" fill-opacity="0.19"/>
<path d="M247.425 923.881C247.545 926.431 248.527 928.596 250.371 930.376C252.214 932.157 254.398 933.047 256.943 933.047C254.398 933.047 252.214 933.938 250.371 935.718C248.527 937.499 247.565 939.664 247.425 942.234C247.345 940.554 246.884 939.017 246.002 937.6C245.141 936.204 243.979 935.091 242.536 934.261C241.093 933.452 239.55 933.047 237.867 933.047C240.412 933.047 242.616 932.157 244.46 930.376C246.323 928.596 247.305 926.431 247.425 923.881Z" fill="white" fill-opacity="0.19"/>
<path d="M71.0105 936.964C71.0888 938.636 71.729 940.056 72.9309 941.224C74.1329 942.392 75.5569 942.975 77.2161 942.975C75.5569 942.975 74.1329 943.559 72.9309 944.727C71.729 945.895 71.1019 947.315 71.0105 949C70.9582 947.899 70.6577 946.89 70.0829 945.961C69.5211 945.046 68.7633 944.316 67.8227 943.772C66.8821 943.241 65.8761 942.975 64.7787 942.975C66.4379 942.975 67.875 942.392 69.0769 941.224C70.2919 940.056 70.9321 938.636 71.0105 936.964Z" fill="white" fill-opacity="0.19"/>
<path d="M128.954 750.67C129.032 752.342 129.672 753.762 130.874 754.93C132.076 756.098 133.5 756.682 135.159 756.682C133.5 756.682 132.076 757.266 130.874 758.433C129.672 759.601 129.045 761.021 128.954 762.706C128.902 761.605 128.601 760.596 128.026 759.667C127.464 758.752 126.707 758.022 125.766 757.478C124.825 756.947 123.819 756.682 122.722 756.682C124.381 756.682 125.818 756.098 127.02 754.93C128.235 753.762 128.875 752.342 128.954 750.67Z" fill="white" fill-opacity="0.19"/>
</svg>
