<svg width="2018" height="1222" viewBox="0 0 2018 1222" fill="none" xmlns="http://www.w3.org/2000/svg">
<path d="M1456.44 651.022C1453.92 651.178 1451.77 652.455 1450.01 654.852C1448.25 657.249 1447.36 660.088 1447.36 663.397C1447.36 660.088 1446.48 657.249 1444.72 654.852C1442.95 652.455 1440.81 651.205 1438.26 651.022C1439.93 650.918 1441.45 650.319 1442.85 649.172C1444.24 648.052 1445.34 646.541 1446.16 644.665C1446.96 642.79 1447.36 640.783 1447.36 638.595C1447.36 641.904 1448.25 644.77 1450.01 647.166C1451.77 649.589 1453.92 650.866 1456.44 651.022Z" fill="white" fill-opacity="0.19"/>
<path d="M1504.14 438.502C1502.34 438.613 1500.81 439.515 1499.55 441.207C1498.29 442.9 1497.66 444.906 1497.66 447.243C1497.66 444.906 1497.04 442.9 1495.78 441.207C1494.52 439.515 1492.99 438.631 1491.18 438.502C1492.36 438.429 1493.45 438.006 1494.45 437.196C1495.44 436.405 1496.22 435.337 1496.81 434.012C1497.38 432.688 1497.66 431.271 1497.66 429.725C1497.66 432.062 1498.29 434.086 1499.55 435.779C1500.81 437.49 1502.34 438.392 1504.14 438.502Z" fill="white" fill-opacity="0.19"/>
<path d="M1400.64 712.075C1398.62 712.203 1396.91 713.243 1395.5 715.197C1394.09 717.15 1393.39 719.464 1393.39 722.161C1393.39 719.464 1392.68 717.15 1391.27 715.197C1389.87 713.243 1388.15 712.224 1386.12 712.075C1387.45 711.991 1388.67 711.502 1389.79 710.568C1390.89 709.655 1391.77 708.424 1392.43 706.895C1393.07 705.366 1393.39 703.731 1393.39 701.948C1393.39 704.644 1394.09 706.98 1395.5 708.933C1396.91 710.908 1398.62 711.948 1400.64 712.075Z" fill="white" fill-opacity="0.19"/>
<path d="M1355.89 658.149C1354.52 658.234 1353.36 658.927 1352.41 660.23C1351.45 661.532 1350.97 663.075 1350.97 664.872C1350.97 663.075 1350.49 661.532 1349.54 660.23C1348.58 658.927 1347.42 658.248 1346.04 658.149C1346.94 658.092 1347.77 657.767 1348.53 657.144C1349.28 656.535 1349.88 655.714 1350.32 654.695C1350.75 653.676 1350.97 652.586 1350.97 651.397C1350.97 653.195 1351.45 654.752 1352.41 656.054C1353.36 657.37 1354.52 658.064 1355.89 658.149Z" fill="white" fill-opacity="0.19"/>
<path d="M1540.41 733.484C1539.05 733.569 1537.88 734.263 1536.93 735.565C1535.97 736.867 1535.5 738.41 1535.5 740.208C1535.5 738.41 1535.02 736.867 1534.06 735.565C1533.11 734.263 1531.95 733.583 1530.57 733.484C1531.47 733.428 1532.29 733.102 1533.05 732.479C1533.8 731.871 1534.4 731.05 1534.84 730.03C1535.28 729.011 1535.5 727.921 1535.5 726.732C1535.5 728.53 1535.97 730.087 1536.93 731.389C1537.88 732.706 1539.05 733.399 1540.41 733.484Z" fill="white" fill-opacity="0.19"/>
<path d="M1296.8 751.415C1294.27 751.571 1292.13 752.848 1290.37 755.244C1288.6 757.641 1287.72 760.481 1287.72 763.79C1287.72 760.481 1286.84 757.641 1285.07 755.244C1283.31 752.848 1281.17 751.597 1278.62 751.415C1280.28 751.311 1281.81 750.711 1283.21 749.565C1284.59 748.445 1285.7 746.934 1286.52 745.058C1287.32 743.182 1287.72 741.176 1287.72 738.988C1287.72 742.296 1288.6 745.162 1290.37 747.559C1292.13 749.982 1294.27 751.258 1296.8 751.415Z" fill="white" fill-opacity="0.19"/>
<path d="M1283.84 522.049C1282.18 522.151 1280.78 522.983 1279.62 524.546C1278.46 526.109 1277.89 527.96 1277.89 530.117C1277.89 527.96 1277.31 526.109 1276.15 524.546C1274.99 522.983 1273.59 522.168 1271.92 522.049C1273.01 521.981 1274.01 521.59 1274.93 520.843C1275.84 520.113 1276.56 519.127 1277.1 517.904C1277.62 516.681 1277.89 515.374 1277.89 513.947C1277.89 516.104 1278.46 517.972 1279.62 519.535C1280.78 521.115 1282.18 521.947 1283.84 522.049Z" fill="white" fill-opacity="0.19"/>
<path d="M1468.36 597.384C1466.71 597.486 1465.3 598.319 1464.15 599.881C1462.99 601.444 1462.41 603.295 1462.41 605.453C1462.41 603.295 1461.83 601.444 1460.68 599.881C1459.52 598.319 1458.11 597.503 1456.44 597.384C1457.53 597.316 1458.53 596.926 1459.45 596.178C1460.36 595.448 1461.08 594.463 1461.62 593.24C1462.15 592.017 1462.41 590.709 1462.41 589.282C1462.41 591.439 1462.99 593.308 1464.15 594.87C1465.3 596.45 1466.71 597.282 1468.36 597.384Z" fill="white" fill-opacity="0.19"/>
<path d="M184.524 589.707C181.999 589.864 179.854 591.14 178.091 593.537C176.327 595.934 175.445 598.774 175.445 602.082C175.445 598.774 174.563 595.934 172.799 593.537C171.036 591.14 168.891 589.89 166.346 589.707C168.009 589.603 169.532 589.004 170.935 587.858C172.318 586.737 173.421 585.226 174.242 583.351C175.044 581.475 175.445 579.469 175.445 577.28C175.445 580.589 176.327 583.455 178.091 585.852C179.854 588.274 181.999 589.551 184.524 589.707Z" fill="white" fill-opacity="0.19"/>
<path d="M232.218 377.188C230.417 377.298 228.889 378.2 227.631 379.893C226.374 381.586 225.745 383.591 225.745 385.928C225.745 383.591 225.117 381.586 223.86 379.893C222.602 378.2 221.073 377.316 219.259 377.188C220.445 377.114 221.531 376.691 222.531 375.881C223.517 375.09 224.302 374.023 224.888 372.698C225.46 371.373 225.745 369.956 225.745 368.41C225.745 370.747 226.374 372.771 227.631 374.464C228.889 376.176 230.417 377.077 232.218 377.188Z" fill="white" fill-opacity="0.19"/>
<path d="M128.717 650.761C126.7 650.888 124.988 651.928 123.58 653.882C122.172 655.835 121.468 658.15 121.468 660.846C121.468 658.15 120.764 655.835 119.356 653.882C117.947 651.928 116.235 650.909 114.203 650.761C115.531 650.676 116.747 650.187 117.867 649.253C118.971 648.34 119.852 647.109 120.508 645.58C121.148 644.051 121.468 642.416 121.468 640.633C121.468 643.329 122.172 645.665 123.58 647.618C124.988 649.593 126.7 650.633 128.717 650.761Z" fill="white" fill-opacity="0.19"/>
<path d="M83.9719 596.834C82.6038 596.919 81.4419 597.613 80.4864 598.915C79.5308 600.217 79.0531 601.76 79.0531 603.558C79.0531 601.76 78.5753 600.217 77.6198 598.915C76.6642 597.613 75.5024 596.933 74.1234 596.834C75.0246 596.777 75.8499 596.452 76.61 595.829C77.3592 595.22 77.9564 594.399 78.4016 593.38C78.8359 592.361 79.0531 591.271 79.0531 590.082C79.0531 591.88 79.5308 593.437 80.4864 594.739C81.4419 596.056 82.6038 596.749 83.9719 596.834Z" fill="white" fill-opacity="0.19"/>
<path d="M268.496 672.169C267.128 672.254 265.966 672.948 265.011 674.25C264.055 675.552 263.577 677.095 263.577 678.893C263.577 677.095 263.1 675.552 262.144 674.25C261.188 672.948 260.027 672.269 258.648 672.169C259.549 672.113 260.374 671.787 261.134 671.164C261.883 670.556 262.481 669.735 262.926 668.716C263.36 667.696 263.577 666.607 263.577 665.418C263.577 667.215 264.055 668.772 265.011 670.075C265.966 671.391 267.128 672.085 268.496 672.169Z" fill="white" fill-opacity="0.19"/>
<path d="M24.8804 690.1C22.355 690.256 20.2105 691.533 18.4467 693.93C16.683 696.327 15.8011 699.166 15.8011 702.475C15.8011 699.166 14.9192 696.327 13.1555 693.93C11.3917 691.533 9.24716 690.282 6.70175 690.1C8.36528 689.996 9.88852 689.397 11.2915 688.25C12.6744 687.13 13.7768 685.619 14.5985 683.743C15.4002 681.867 15.8011 679.861 15.8011 677.673C15.8011 680.982 16.683 683.847 18.4467 686.244C20.2105 688.667 22.355 689.944 24.8804 690.1Z" fill="white" fill-opacity="0.19"/>
<path d="M11.9219 460.735C10.2657 460.837 8.85925 461.669 7.70255 463.232C6.54585 464.794 5.9675 466.646 5.9675 468.803C5.9675 466.646 5.38915 464.794 4.23245 463.232C3.07575 461.669 1.66931 460.854 -2.09911e-05 460.735C1.09096 460.667 2.08993 460.276 3.01003 459.529C3.91698 458.798 4.63992 457.813 5.17884 456.59C5.70461 455.367 5.9675 454.059 5.9675 452.632C5.9675 454.79 6.54585 456.658 7.70255 458.221C8.85925 459.8 10.2657 460.633 11.9219 460.735Z" fill="white" fill-opacity="0.19"/>
<path d="M196.446 536.07C194.79 536.171 193.383 537.004 192.227 538.566C191.07 540.129 190.492 541.981 190.492 544.138C190.492 541.981 189.913 540.129 188.757 538.566C187.6 537.004 186.194 536.188 184.524 536.07C185.615 536.002 186.614 535.611 187.534 534.864C188.441 534.133 189.164 533.148 189.703 531.925C190.229 530.702 190.492 529.394 190.492 527.967C190.492 530.124 191.07 531.993 192.227 533.556C193.383 535.135 194.79 535.968 196.446 536.07Z" fill="white" fill-opacity="0.19"/>
<path d="M1069.22 887.537C1069.1 884.254 1068.12 881.466 1066.27 879.174C1064.43 876.881 1062.24 875.735 1059.7 875.735C1062.24 875.735 1064.43 874.588 1066.27 872.296C1068.12 870.003 1069.08 867.215 1069.22 863.907C1069.3 866.069 1069.76 868.049 1070.64 869.873C1071.5 871.67 1072.66 873.103 1074.11 874.172C1075.55 875.214 1077.09 875.735 1078.78 875.735C1076.23 875.735 1074.03 876.881 1072.18 879.174C1070.32 881.466 1069.34 884.254 1069.22 887.537Z" fill="white" fill-opacity="0.4"/>
<path d="M1232.71 949.531C1232.63 947.191 1231.93 945.204 1230.63 943.57C1229.33 941.936 1227.78 941.118 1225.99 941.118C1227.78 941.118 1229.33 940.301 1230.63 938.667C1231.93 937.033 1232.61 935.046 1232.71 932.687C1232.77 934.228 1233.09 935.64 1233.72 936.94C1234.33 938.221 1235.15 939.243 1236.17 940.004C1237.18 940.747 1238.27 941.118 1239.46 941.118C1237.67 941.118 1236.11 941.936 1234.81 943.57C1233.49 945.204 1232.8 947.191 1232.71 949.531Z" fill="white" fill-opacity="0.4"/>
<path d="M1022.25 814.994C1022.15 812.373 1021.35 810.148 1019.85 808.317C1018.34 806.487 1016.56 805.572 1014.49 805.572C1016.56 805.572 1018.34 804.656 1019.85 802.826C1021.35 800.996 1022.13 798.77 1022.25 796.128C1022.31 797.855 1022.69 799.436 1023.41 800.892C1024.11 802.327 1025.06 803.471 1026.23 804.324C1027.41 805.156 1028.67 805.572 1030.04 805.572C1027.97 805.572 1026.17 806.487 1024.67 808.317C1023.15 810.148 1022.35 812.373 1022.25 814.994Z" fill="white" fill-opacity="0.4"/>
<path d="M1063.73 756.832C1063.67 755.053 1063.14 753.543 1062.13 752.301C1061.13 751.059 1059.94 750.438 1058.56 750.438C1059.94 750.438 1061.13 749.817 1062.13 748.575C1063.14 747.333 1063.66 745.823 1063.73 744.03C1063.78 745.201 1064.03 746.274 1064.51 747.262C1064.98 748.236 1065.61 749.012 1066.39 749.591C1067.18 750.156 1068.01 750.438 1068.93 750.438C1067.55 750.438 1066.35 751.059 1065.35 752.301C1064.33 753.543 1063.8 755.053 1063.73 756.832Z" fill="white" fill-opacity="0.4"/>
<path d="M1005.78 996.688C1005.71 994.91 1005.18 993.4 1004.18 992.158C1003.18 990.916 1001.99 990.294 1000.61 990.294C1001.99 990.294 1003.18 989.673 1004.18 988.431C1005.18 987.189 1005.7 985.679 1005.78 983.887C1005.82 985.058 1006.07 986.131 1006.55 987.119C1007.02 988.093 1007.65 988.869 1008.44 989.448C1009.22 990.012 1010.06 990.294 1010.97 990.294C1009.59 990.294 1008.39 990.916 1007.39 992.158C1006.38 993.4 1005.84 994.91 1005.78 996.688Z" fill="white" fill-opacity="0.4"/>
<path d="M991.984 680.022C991.864 676.739 990.882 673.951 989.038 671.659C987.194 669.366 985.009 668.22 982.464 668.22C985.009 668.22 987.194 667.073 989.038 664.781C990.882 662.488 991.844 659.7 991.984 656.392C992.064 658.554 992.525 660.534 993.407 662.358C994.269 664.155 995.432 665.588 996.875 666.657C998.318 667.699 999.861 668.22 1001.54 668.22C998.999 668.22 996.794 669.366 994.951 671.659C993.087 673.951 992.105 676.739 991.984 680.022Z" fill="white" fill-opacity="0.4"/>
<path d="M1168.44 663.177C1168.36 661.024 1167.72 659.196 1166.52 657.693C1165.31 656.189 1163.89 655.437 1162.23 655.437C1163.89 655.437 1165.31 654.686 1166.52 653.182C1167.72 651.679 1168.35 649.85 1168.44 647.68C1168.49 649.099 1168.79 650.397 1169.37 651.593C1169.93 652.772 1170.69 653.712 1171.63 654.412C1172.57 655.096 1173.57 655.437 1174.67 655.437C1173.01 655.437 1171.57 656.189 1170.37 657.693C1169.16 659.196 1168.52 661.024 1168.44 663.177Z" fill="white" fill-opacity="0.4"/>
<path d="M1110.48 903.033C1110.4 900.881 1109.76 899.052 1108.56 897.549C1107.36 896.045 1105.93 895.294 1104.27 895.294C1105.93 895.294 1107.36 894.542 1108.56 893.038C1109.76 891.535 1110.39 889.706 1110.48 887.537C1110.53 888.955 1110.83 890.253 1111.41 891.449C1111.97 892.628 1112.73 893.568 1113.67 894.268C1114.61 894.952 1115.62 895.294 1116.72 895.294C1115.06 895.294 1113.62 896.045 1112.42 897.549C1111.2 899.052 1110.56 900.881 1110.48 903.033Z" fill="white" fill-opacity="0.4"/>
<path d="M597.186 1094.58C597.046 1090.75 595.9 1087.5 593.75 1084.83C591.6 1082.16 589.053 1080.82 586.085 1080.82C589.053 1080.82 591.6 1079.48 593.75 1076.81C595.9 1074.14 597.022 1070.88 597.186 1067.03C597.279 1069.55 597.817 1071.86 598.845 1073.98C599.85 1076.08 601.206 1077.75 602.888 1079C604.571 1080.21 606.37 1080.82 608.334 1080.82C605.366 1080.82 602.795 1082.16 600.645 1084.83C598.471 1087.5 597.326 1090.75 597.186 1094.58Z" fill="white" fill-opacity="0.4"/>
<path d="M787.827 1166.87C787.728 1164.14 786.92 1161.82 785.401 1159.92C783.882 1158.01 782.083 1157.06 779.987 1157.06C782.083 1157.06 783.882 1156.11 785.401 1154.2C786.92 1152.29 787.712 1149.98 787.827 1147.23C787.894 1149.02 788.273 1150.67 788.999 1152.19C789.709 1153.68 790.667 1154.87 791.855 1155.76C793.044 1156.63 794.315 1157.06 795.701 1157.06C793.605 1157.06 791.789 1158.01 790.271 1159.92C788.735 1161.82 787.927 1164.14 787.827 1166.87Z" fill="white" fill-opacity="0.4"/>
<path d="M542.418 1009.99C542.303 1006.94 541.37 1004.34 539.618 1002.21C537.865 1000.07 535.789 999.005 533.37 999.005C535.789 999.005 537.865 997.938 539.618 995.804C541.37 993.669 542.284 991.074 542.418 987.994C542.494 990.007 542.932 991.85 543.77 993.548C544.589 995.222 545.694 996.556 547.065 997.55C548.436 998.52 549.903 999.005 551.503 999.005C549.084 999.005 546.989 1000.07 545.236 1002.21C543.465 1004.34 542.532 1006.94 542.418 1009.99Z" fill="white" fill-opacity="0.4"/>
<path d="M590.792 942.172C590.716 940.098 590.094 938.337 588.926 936.889C587.758 935.44 586.373 934.716 584.761 934.716C586.373 934.716 587.758 933.992 588.926 932.544C590.094 931.096 590.703 929.335 590.792 927.244C590.843 928.61 591.135 929.861 591.694 931.013C592.24 932.149 592.976 933.054 593.891 933.729C594.805 934.387 595.783 934.716 596.849 934.716C595.237 934.716 593.84 935.44 592.672 936.889C591.491 938.337 590.868 940.098 590.792 942.172Z" fill="white" fill-opacity="0.4"/>
<path d="M523.212 1221.86C523.136 1219.78 522.514 1218.02 521.346 1216.57C520.177 1215.12 518.793 1214.4 517.181 1214.4C518.793 1214.4 520.177 1213.68 521.346 1212.23C522.514 1210.78 523.123 1209.02 523.212 1206.93C523.263 1208.29 523.555 1209.55 524.114 1210.7C524.66 1211.83 525.396 1212.74 526.31 1213.41C527.225 1214.07 528.202 1214.4 529.269 1214.4C527.656 1214.4 526.26 1215.12 525.091 1216.57C523.911 1218.02 523.288 1219.78 523.212 1221.86Z" fill="white" fill-opacity="0.4"/>
<path d="M507.128 852.607C506.988 848.78 505.843 845.529 503.692 842.856C501.542 840.182 498.995 838.846 496.027 838.846C498.995 838.846 501.542 837.509 503.692 834.836C505.843 832.162 506.964 828.912 507.128 825.054C507.221 827.575 507.759 829.884 508.787 832.011C509.792 834.107 511.148 835.778 512.83 837.023C514.513 838.238 516.313 838.846 518.276 838.846C515.308 838.846 512.737 840.182 510.587 842.856C508.413 845.529 507.268 848.78 507.128 852.607Z" fill="white" fill-opacity="0.4"/>
<path d="M712.881 832.966C712.79 830.455 712.043 828.324 710.641 826.571C709.239 824.817 707.579 823.941 705.643 823.941C707.579 823.941 709.239 823.064 710.641 821.311C712.043 819.558 712.775 817.426 712.881 814.896C712.942 816.549 713.293 818.063 713.963 819.458C714.618 820.833 715.502 821.929 716.599 822.745C717.696 823.542 718.869 823.941 720.149 823.941C718.214 823.941 716.538 824.817 715.136 826.571C713.719 828.324 712.973 830.455 712.881 832.966Z" fill="white" fill-opacity="0.4"/>
<path d="M645.302 1112.65C645.211 1110.14 644.464 1108.01 643.062 1106.25C641.66 1104.5 640 1103.62 638.064 1103.62C640 1103.62 641.66 1102.75 643.062 1101C644.464 1099.24 645.195 1097.11 645.302 1094.58C645.363 1096.23 645.714 1097.75 646.384 1099.14C647.039 1100.52 647.923 1101.61 649.02 1102.43C650.117 1103.23 651.29 1103.62 652.57 1103.62C650.635 1103.62 648.959 1104.5 647.557 1106.25C646.14 1108.01 645.394 1110.14 645.302 1112.65Z" fill="white" fill-opacity="0.4"/>
<path d="M786.391 616.769C786.271 613.486 785.289 610.699 783.445 608.406C781.601 606.113 779.416 604.967 776.871 604.967C779.416 604.967 781.601 603.821 783.445 601.528C785.289 599.235 786.251 596.448 786.391 593.139C786.471 595.301 786.932 597.281 787.814 599.105C788.676 600.903 789.838 602.336 791.281 603.404C792.725 604.446 794.268 604.967 795.951 604.967C793.406 604.967 791.201 606.113 789.357 608.406C787.493 610.699 786.511 613.486 786.391 616.769Z" fill="white" fill-opacity="0.19"/>
<path d="M949.885 678.763C949.8 676.423 949.106 674.436 947.804 672.802C946.501 671.167 944.958 670.35 943.161 670.35C944.958 670.35 946.501 669.533 947.804 667.899C949.106 666.264 949.786 664.277 949.885 661.919C949.941 663.46 950.267 664.872 950.89 666.172C951.499 667.453 952.32 668.474 953.339 669.236C954.358 669.979 955.448 670.35 956.637 670.35C954.84 670.35 953.282 671.167 951.98 672.802C950.663 674.436 949.97 676.423 949.885 678.763Z" fill="white" fill-opacity="0.19"/>
<path d="M739.422 544.226C739.324 541.605 738.524 539.38 737.021 537.549C735.518 535.719 733.738 534.804 731.663 534.804C733.738 534.804 735.518 533.889 737.021 532.058C738.524 530.228 739.308 528.002 739.422 525.361C739.487 527.087 739.863 528.668 740.582 530.124C741.284 531.559 742.231 532.703 743.407 533.556C744.584 534.388 745.841 534.804 747.213 534.804C745.139 534.804 743.342 535.719 741.839 537.549C740.32 539.38 739.52 541.605 739.422 544.226Z" fill="white" fill-opacity="0.19"/>
<path d="M780.908 486.063C780.843 484.285 780.309 482.775 779.307 481.533C778.305 480.291 777.118 479.67 775.736 479.67C777.118 479.67 778.305 479.049 779.307 477.807C780.309 476.564 780.832 475.054 780.908 473.262C780.952 474.433 781.202 475.506 781.681 476.494C782.149 477.468 782.781 478.244 783.565 478.823C784.349 479.387 785.188 479.67 786.102 479.67C784.719 479.67 783.522 480.291 782.52 481.533C781.507 482.775 780.973 484.285 780.908 486.063Z" fill="white" fill-opacity="0.19"/>
<path d="M722.952 725.92C722.887 724.142 722.353 722.631 721.351 721.389C720.349 720.147 719.162 719.526 717.779 719.526C719.162 719.526 720.349 718.905 721.351 717.663C722.353 716.421 722.876 714.911 722.952 713.118C722.995 714.29 723.246 715.362 723.725 716.351C724.193 717.324 724.825 718.101 725.609 718.679C726.393 719.244 727.231 719.526 728.146 719.526C726.763 719.526 725.565 720.147 724.564 721.389C723.551 722.631 723.017 724.142 722.952 725.92Z" fill="white" fill-opacity="0.19"/>
<path d="M709.158 409.253C709.038 405.97 708.055 403.183 706.212 400.89C704.368 398.597 702.183 397.451 699.638 397.451C702.183 397.451 704.368 396.305 706.212 394.012C708.055 391.719 709.018 388.932 709.158 385.623C709.238 387.785 709.699 389.765 710.581 391.589C711.443 393.387 712.605 394.82 714.048 395.888C715.491 396.93 717.035 397.451 718.718 397.451C716.173 397.451 713.968 398.597 712.124 400.89C710.26 403.183 709.278 405.97 709.158 409.253Z" fill="white" fill-opacity="0.19"/>
<path d="M885.612 392.409C885.533 390.256 884.893 388.428 883.691 386.925C882.489 385.421 881.064 384.669 879.405 384.669C881.064 384.669 882.489 383.917 883.691 382.414C884.893 380.91 885.52 379.082 885.612 376.912C885.664 378.33 885.964 379.629 886.539 380.825C887.101 382.004 887.859 382.944 888.8 383.644C889.741 384.327 890.747 384.669 891.845 384.669C890.185 384.669 888.748 385.421 887.546 386.925C886.33 388.428 885.69 390.256 885.612 392.409Z" fill="white" fill-opacity="0.19"/>
<path d="M827.655 632.266C827.577 630.113 826.937 628.285 825.735 626.781C824.532 625.278 823.108 624.526 821.448 624.526C823.108 624.526 824.532 623.774 825.735 622.27C826.937 620.767 827.564 618.939 827.655 616.769C827.708 618.187 828.008 619.485 828.583 620.681C829.145 621.86 829.903 622.8 830.844 623.501C831.785 624.184 832.791 624.526 833.889 624.526C832.229 624.526 830.792 625.278 829.589 626.781C828.374 628.285 827.734 630.113 827.655 632.266Z" fill="white" fill-opacity="0.19"/>
<path d="M1847.75 239.857C1847.63 236.574 1846.65 233.786 1844.81 231.494C1842.96 229.201 1840.78 228.055 1838.23 228.055C1840.78 228.055 1842.96 226.908 1844.81 224.616C1846.65 222.323 1847.61 219.536 1847.75 216.227C1847.83 218.389 1848.29 220.369 1849.18 222.193C1850.04 223.991 1851.2 225.423 1852.64 226.492C1854.09 227.534 1855.63 228.055 1857.31 228.055C1854.77 228.055 1852.56 229.201 1850.72 231.494C1848.86 233.786 1847.87 236.574 1847.75 239.857Z" fill="white" fill-opacity="0.19"/>
<path d="M2011.25 301.851C2011.16 299.511 2010.47 297.524 2009.17 295.889C2007.86 294.255 2006.32 293.438 2004.52 293.438C2006.32 293.438 2007.86 292.621 2009.17 290.987C2010.47 289.352 2011.15 287.365 2011.25 285.007C2011.3 286.548 2011.63 287.959 2012.25 289.259C2012.86 290.541 2013.68 291.562 2014.7 292.324C2015.72 293.067 2016.81 293.438 2018 293.438C2016.2 293.438 2014.64 294.255 2013.34 295.889C2012.03 297.524 2011.33 299.511 2011.25 301.851Z" fill="white" fill-opacity="0.19"/>
<path d="M1800.78 167.314C1800.69 164.693 1799.89 162.468 1798.38 160.637C1796.88 158.807 1795.1 157.892 1793.03 157.892C1795.1 157.892 1796.88 156.976 1798.38 155.146C1799.89 153.316 1800.67 151.09 1800.78 148.448C1800.85 150.175 1801.23 151.756 1801.94 153.212C1802.65 154.647 1803.59 155.791 1804.77 156.644C1805.95 157.476 1807.2 157.892 1808.58 157.892C1806.5 157.892 1804.7 158.807 1803.2 160.637C1801.68 162.468 1800.88 164.693 1800.78 167.314Z" fill="white" fill-opacity="0.19"/>
<path d="M1842.27 109.152C1842.2 107.373 1841.67 105.863 1840.67 104.621C1839.67 103.379 1838.48 102.758 1837.1 102.758C1838.48 102.758 1839.67 102.137 1840.67 100.895C1841.67 99.6528 1842.19 98.1426 1842.27 96.35C1842.31 97.5215 1842.56 98.5942 1843.04 99.5822C1843.51 100.556 1844.14 101.332 1844.93 101.911C1845.71 102.476 1846.55 102.758 1847.46 102.758C1846.08 102.758 1844.88 103.379 1843.88 104.621C1842.87 105.863 1842.34 107.373 1842.27 109.152Z" fill="white" fill-opacity="0.19"/>
<path d="M1784.31 349.008C1784.25 347.23 1783.72 345.72 1782.71 344.478C1781.71 343.236 1780.52 342.615 1779.14 342.615C1780.52 342.615 1781.71 341.994 1782.71 340.751C1783.72 339.509 1784.24 337.999 1784.31 336.207C1784.36 337.378 1784.61 338.451 1785.09 339.439C1785.56 340.413 1786.19 341.189 1786.97 341.768C1787.76 342.332 1788.59 342.615 1789.51 342.615C1788.13 342.615 1786.93 343.236 1785.93 344.478C1784.91 345.72 1784.38 347.23 1784.31 349.008Z" fill="white" fill-opacity="0.19"/>
<path d="M1770.52 32.3411C1770.4 29.0584 1769.42 26.2708 1767.57 23.9782C1765.73 21.6856 1763.55 20.5392 1761 20.5392C1763.55 20.5392 1765.73 19.3929 1767.57 17.1003C1769.42 14.8077 1770.38 12.02 1770.52 8.71135C1770.6 10.8737 1771.06 12.8537 1771.94 14.6774C1772.8 16.475 1773.97 17.9079 1775.41 18.9761C1776.85 20.0182 1778.4 20.5392 1780.08 20.5392C1777.53 20.5392 1775.33 21.6856 1773.49 23.9782C1771.62 26.2708 1770.64 29.0584 1770.52 32.3411Z" fill="white" fill-opacity="0.19"/>
<path d="M1946.97 15.4969C1946.9 13.3441 1946.26 11.5159 1945.05 10.0123C1943.85 8.50878 1942.43 7.757 1940.77 7.757C1942.43 7.757 1943.85 7.00523 1945.05 5.50167C1946.26 3.99812 1946.88 2.16994 1946.97 4.32891e-05C1947.03 1.41817 1947.33 2.71669 1947.9 3.91269C1948.46 5.09161 1949.22 6.03133 1950.16 6.73185C1951.1 7.41528 1952.11 7.757 1953.21 7.757C1951.55 7.757 1950.11 8.50878 1948.91 10.0123C1947.69 11.5159 1947.05 13.3441 1946.97 15.4969Z" fill="white" fill-opacity="0.19"/>
<path d="M1889.02 255.353C1888.94 253.201 1888.3 251.372 1887.1 249.869C1885.89 248.365 1884.47 247.614 1882.81 247.614C1884.47 247.614 1885.89 246.862 1887.1 245.358C1888.3 243.855 1888.93 242.027 1889.02 239.857C1889.07 241.275 1889.37 242.573 1889.95 243.769C1890.51 244.948 1891.27 245.888 1892.21 246.588C1893.15 247.272 1894.15 247.614 1895.25 247.614C1893.59 247.614 1892.15 248.365 1890.95 249.869C1889.74 251.372 1889.1 253.201 1889.02 255.353Z" fill="white" fill-opacity="0.19"/>
</svg>
